<svg width="35" height="38" viewBox="0 0 35 38" fill="none" xmlns="http://www.w3.org/2000/svg">
<path d="M2.3944 13.8287C3.69625 13.1411 5.12616 12.73 6.5944 12.6212C8.71161 12.4777 10.8265 12.9325 12.6975 13.9337L17.1207 7.27931C18.6021 5.02207 20.6697 3.21033 23.102 2.03813C25.5342 0.865929 28.2395 0.377423 30.9282 0.624931C31.6009 0.684736 32.24 0.945898 32.7621 1.37435C33.2842 1.80281 33.6651 2.37866 33.855 3.02681C34.6184 5.61846 34.6626 8.36892 33.9829 10.9838C33.3032 13.5986 31.9251 15.9794 29.9963 17.8712L24.3 23.4887C25.6477 25.1319 26.5112 27.118 26.7938 29.2243C26.9664 30.6884 26.8324 32.1724 26.4 33.5818C26.2684 34.0156 26.0319 34.4102 25.7114 34.7307C25.3909 35.0512 24.9963 35.2877 24.5625 35.4193C24.285 35.4981 23.9979 35.5378 23.7094 35.5374C23.0194 35.5357 22.3514 35.2944 21.8194 34.8549L15.9919 30.0643L12.9469 27.5574L11.28 29.5918C11.1552 29.7417 10.9986 29.8619 10.8215 29.9436C10.6444 30.0253 10.4513 30.0666 10.2563 30.0643C9.95412 30.0619 9.66206 29.9552 9.4294 29.7624C9.1629 29.5421 8.99411 29.2255 8.95971 28.8815C8.9253 28.5374 9.02806 28.1937 9.24565 27.9249L10.9125 25.8906L7.88065 23.3968C7.62768 23.1906 7.46063 22.8975 7.4121 22.5747C7.36356 22.252 7.43703 21.9227 7.61815 21.6512L11.2669 16.1387C9.88574 15.4473 8.34583 15.1348 6.8044 15.2331C5.70196 15.317 4.62913 15.6299 3.6544 16.1518C3.6544 16.1518 3.6544 16.1518 3.57565 16.2699C3.57445 16.3267 3.58556 16.3831 3.60822 16.4352C3.63087 16.4873 3.66454 16.5339 3.7069 16.5718L5.4394 17.9893C5.6484 18.1624 5.79859 18.3961 5.86928 18.6582C5.93997 18.9202 5.92769 19.1977 5.83413 19.4525C5.74057 19.7072 5.57034 19.9267 5.34686 20.0807C5.12338 20.2348 4.85766 20.3157 4.58628 20.3124C4.28291 20.3169 3.98853 20.2094 3.7594 20.0106L2.0269 18.5931C1.64525 18.2779 1.34732 17.8735 1.15956 17.4155C0.971813 16.9576 0.900051 16.4604 0.950649 15.9681C1.00169 15.5217 1.15955 15.0942 1.41087 14.7218C1.66218 14.3494 1.99955 14.043 2.3944 13.8287ZM23.4732 32.8337C23.5149 32.8719 23.5662 32.8982 23.6216 32.9097C23.6771 32.9213 23.7346 32.9177 23.7882 32.8993C23.8125 32.8954 23.8353 32.8847 23.8539 32.8685C23.8724 32.8522 23.8861 32.8311 23.8932 32.8074C24.2234 31.738 24.3218 30.6104 24.1819 29.4999C23.9876 27.9663 23.3797 26.5144 22.4232 25.2999L18.7613 28.9224L23.4732 32.8337ZM12.5663 23.8693L14.2331 21.8349C14.4542 21.5652 14.7733 21.3942 15.1204 21.3598C15.4675 21.3253 15.814 21.4301 16.0838 21.6512C16.3536 21.8722 16.5245 22.1914 16.5589 22.5384C16.5934 22.8855 16.4886 23.232 16.2675 23.5018L14.6007 25.5624L16.6219 27.2293L16.7269 27.3081L28.1456 16.0206C28.4934 15.6796 28.8179 15.3157 29.1169 14.9312C27.6608 14.7552 26.2566 14.2809 24.992 13.538C23.7273 12.795 22.6295 11.7993 21.7669 10.6131C21.5636 10.3339 21.4785 9.98578 21.53 9.64426C21.5816 9.30275 21.7658 8.99534 22.0425 8.78868C22.1812 8.68596 22.3388 8.61159 22.5063 8.56984C22.6737 8.52809 22.8478 8.51978 23.0184 8.54538C23.1891 8.57098 23.3531 8.63 23.5009 8.71904C23.6488 8.80808 23.7776 8.92541 23.88 9.06431C24.2528 9.60847 24.6939 10.1025 25.1925 10.5343C26.7369 11.8007 28.6819 12.4754 30.6788 12.4374C31.9372 9.74736 32.1705 6.69047 31.335 3.84056C31.3032 3.68717 31.224 3.54765 31.1086 3.44168C30.9932 3.33572 30.8474 3.26864 30.6919 3.24993C30.3071 3.2306 29.9217 3.2306 29.5369 3.24993C27.5131 3.2463 25.52 3.7443 23.7357 4.69941C21.9515 5.65451 20.4318 7.03694 19.3125 8.72306L10.44 22.1106L12.5663 23.8693Z" fill="#4A0EB9"/>
<path d="M4.75691 28.9749C4.99075 28.7852 5.28269 28.6816 5.58379 28.6816C5.88489 28.6816 6.17683 28.7852 6.41066 28.9749L10.7682 32.558C10.9989 32.7492 11.1574 33.0136 11.217 33.3073C11.2767 33.601 11.2341 33.9062 11.0963 34.1724C10.5722 35.2008 9.75453 36.0505 8.74691 36.6136C7.87063 37.1099 6.87958 37.3678 5.87254 37.3617C5.24551 37.3608 4.62201 37.2679 4.02191 37.0861C3.69578 36.9833 3.42266 36.7573 3.26066 36.4561C2.87164 35.7394 2.63053 34.9519 2.55162 34.1402C2.47271 33.3286 2.55761 32.5093 2.80129 31.7311C3.16801 30.6401 3.84824 29.6814 4.75691 28.9749ZM5.34754 34.7499C6.09046 34.8648 6.85033 34.7212 7.50004 34.343C7.75747 34.2047 7.99209 34.0276 8.19566 33.818L5.71504 31.7967C5.55463 32.037 5.42665 32.2974 5.33441 32.5711C5.1006 33.2793 5.10521 34.0446 5.34754 34.7499Z" fill="#4A0EB9"/>
</svg>
