<svg width="38" height="36" viewBox="0 0 38 36" fill="none" xmlns="http://www.w3.org/2000/svg">
<path d="M31.9544 11.4375H6.04563C4.60799 11.4375 3.22923 12.0086 2.21266 13.0252C1.1961 14.0417 0.625 15.4205 0.625 16.8581V29.6419C0.625 31.0795 1.1961 32.4583 2.21266 33.4748C3.22923 34.4914 4.60799 35.0625 6.04563 35.0625H31.9544C33.392 35.0625 34.7708 34.4914 35.7873 33.4748C36.8039 32.4583 37.375 31.0795 37.375 29.6419V16.8581C37.375 15.4205 36.8039 14.0417 35.7873 13.0252C34.7708 12.0086 33.392 11.4375 31.9544 11.4375ZM34.75 29.6419C34.7465 30.3823 34.4509 31.0913 33.9274 31.6149C33.4038 32.1384 32.6948 32.434 31.9544 32.4375H6.04563C5.30524 32.434 4.59617 32.1384 4.07263 31.6149C3.5491 31.0913 3.25345 30.3823 3.25 29.6419V16.8581C3.25345 16.1177 3.5491 15.4087 4.07263 14.8851C4.59617 14.3616 5.30524 14.066 6.04563 14.0625H31.9544C32.6948 14.066 33.4038 14.3616 33.9274 14.8851C34.4509 15.4087 34.7465 16.1177 34.75 16.8581V29.6419Z" fill="#4A0EB9"/>
<path d="M7.1875 8.8125H30.8125C31.1606 8.8125 31.4944 8.67422 31.7406 8.42808C31.9867 8.18194 32.125 7.8481 32.125 7.5C32.125 7.1519 31.9867 6.81806 31.7406 6.57192C31.4944 6.32578 31.1606 6.1875 30.8125 6.1875H7.1875C6.8394 6.1875 6.50556 6.32578 6.25942 6.57192C6.01328 6.81806 5.875 7.1519 5.875 7.5C5.875 7.8481 6.01328 8.18194 6.25942 8.42808C6.50556 8.67422 6.8394 8.8125 7.1875 8.8125Z" fill="#4A0EB9"/>
<path d="M9.8125 3.5625H28.1875C28.5356 3.5625 28.8694 3.42422 29.1156 3.17808C29.3617 2.93194 29.5 2.5981 29.5 2.25C29.5 1.9019 29.3617 1.56806 29.1156 1.32192C28.8694 1.07578 28.5356 0.9375 28.1875 0.9375H9.8125C9.4644 0.9375 9.13056 1.07578 8.88442 1.32192C8.63828 1.56806 8.5 1.9019 8.5 2.25C8.5 2.5981 8.63828 2.93194 8.88442 3.17808C9.13056 3.42422 9.4644 3.5625 9.8125 3.5625Z" fill="#4A0EB9"/>
<path d="M23.5281 22.0818L15.6531 18.1443C15.4533 18.0436 15.2311 17.9957 15.0076 18.0051C14.784 18.0144 14.5666 18.0808 14.3759 18.1978C14.1852 18.3148 14.0276 18.4787 13.9181 18.6738C13.8085 18.8689 13.7507 19.0887 13.75 19.3124V27.1874C13.7496 27.4105 13.806 27.63 13.9139 27.8252C14.0218 28.0204 14.1777 28.1848 14.3669 28.3031C14.5758 28.4325 14.8168 28.5007 15.0625 28.4999C15.268 28.4987 15.4703 28.4493 15.6531 28.3556L23.5281 24.4181C23.7431 24.3079 23.9235 24.1406 24.0495 23.9345C24.1755 23.7284 24.2422 23.4915 24.2422 23.2499C24.2422 23.0084 24.1755 22.7715 24.0495 22.5654C23.9235 22.3593 23.7431 22.192 23.5281 22.0818ZM16.375 25.0612V21.4387L19.9975 23.2499L16.375 25.0612Z" fill="#4A0EB9"/>
</svg>
