<svg width="38" height="30" viewBox="0 0 38 30" fill="none" xmlns="http://www.w3.org/2000/svg">
<path d="M34.1331 3.18744H30.8125C30.6774 2.45054 30.2882 1.78433 29.7127 1.30471C29.1372 0.825098 28.4117 0.562441 27.6625 0.562441H10.39C9.63183 0.550029 8.89386 0.807038 8.30742 1.28772C7.72099 1.76841 7.32413 2.44159 7.1875 3.18744H3.86687C3.00814 3.1909 2.18556 3.53356 1.57834 4.14078C0.971119 4.748 0.628456 5.57058 0.625 6.42932V23.5706C0.628456 24.4293 0.971119 25.2519 1.57834 25.8591C2.18556 26.4663 3.00814 26.809 3.86687 26.8124H7.1875C7.3226 27.5493 7.71177 28.2156 8.28731 28.6952C8.86285 29.1748 9.58832 29.4374 10.3375 29.4374H27.61C28.3682 29.4499 29.1061 29.1928 29.6926 28.7122C30.279 28.2315 30.6759 27.5583 30.8125 26.8124H34.1856C35.0352 26.7953 35.8444 26.4466 36.4404 25.8409C37.0363 25.2351 37.3717 24.4203 37.375 23.5706V6.42932C37.3715 5.57058 37.0289 4.748 36.4217 4.14078C35.8144 3.53356 34.9919 3.1909 34.1331 3.18744ZM3.25 23.5706V6.42932C3.25 6.34831 3.26596 6.26809 3.29696 6.19325C3.32796 6.11841 3.3734 6.0504 3.43068 5.99312C3.48796 5.93584 3.55596 5.8904 3.63081 5.8594C3.70565 5.8284 3.78587 5.81244 3.86687 5.81244H7.1875V24.1874H3.86687C3.70327 24.1874 3.54637 24.1225 3.43068 24.0068C3.31499 23.8911 3.25 23.7342 3.25 23.5706ZM28.1875 26.1956C28.1875 26.2714 28.1726 26.3465 28.1435 26.4166C28.1145 26.4866 28.072 26.5503 28.0184 26.6039C27.9647 26.6575 27.9011 26.7001 27.831 26.7291C27.7609 26.7581 27.6858 26.7731 27.61 26.7731H10.39C10.2434 26.7734 10.1022 26.718 9.99496 26.6181C9.88772 26.5181 9.82249 26.3812 9.8125 26.2349V3.76494C9.8125 3.61178 9.87334 3.46489 9.98165 3.35659C10.0899 3.24828 10.2368 3.18744 10.39 3.18744H27.61C27.6858 3.18744 27.7609 3.20238 27.831 3.2314C27.9011 3.26042 27.9647 3.30296 28.0184 3.35659C28.072 3.41021 28.1145 3.47388 28.1435 3.54394C28.1726 3.61401 28.1875 3.6891 28.1875 3.76494V26.2349V26.1956ZM34.75 23.5706C34.75 23.7342 34.685 23.8911 34.5693 24.0068C34.4536 24.1225 34.2967 24.1874 34.1331 24.1874H30.8125V5.81244H34.1331C34.2141 5.81244 34.2943 5.8284 34.3692 5.8594C34.444 5.8904 34.512 5.93584 34.5693 5.99312C34.6266 6.0504 34.672 6.11841 34.703 6.19325C34.734 6.26809 34.75 6.34831 34.75 6.42932V23.5706Z" fill="#4A0EB9"/>
<path d="M23.5281 13.8318L15.6531 9.89431C15.4533 9.79363 15.2311 9.74569 15.0076 9.75506C14.784 9.76442 14.5666 9.83077 14.3759 9.94781C14.1852 10.0649 14.0276 10.2287 13.9181 10.4238C13.8085 10.6189 13.7507 10.8387 13.75 11.0624V18.9374C13.7496 19.1605 13.806 19.38 13.9139 19.5752C14.0218 19.7704 14.1777 19.9348 14.3669 20.0531C14.5757 20.1825 14.8168 20.2507 15.0625 20.2499C15.268 20.2487 15.4703 20.1993 15.6531 20.1056L23.5281 16.1681C23.7431 16.0579 23.9235 15.8906 24.0495 15.6845C24.1755 15.4784 24.2422 15.2415 24.2422 14.9999C24.2422 14.7584 24.1755 14.5215 24.0495 14.3154C23.9235 14.1093 23.7431 13.942 23.5281 13.8318ZM16.375 16.8112V13.1887L19.9975 14.9999L16.375 16.8112Z" fill="#4A0EB9"/>
</svg>
