<svg width="36" height="36" viewBox="0 0 36 36" fill="none" xmlns="http://www.w3.org/2000/svg">
<path d="M18 0.9375C8.585 0.9375 0.9375 8.585 0.9375 18V30.25C0.9375 32.91 3.09 35.0625 5.75 35.0625H18C27.415 35.0625 35.0625 27.415 35.0625 18C35.0625 8.585 27.415 0.9375 18 0.9375ZM18 32.4375H5.75C4.5425 32.4375 3.5625 31.4575 3.5625 30.25V18C3.5625 10.0375 10.0375 3.5625 18 3.5625C25.9625 3.5625 32.4375 10.0375 32.4375 18C32.4375 25.9625 25.9625 32.4375 18 32.4375Z" fill="#4A0EB9"/>
<path d="M18 23.6875C17.2825 23.6875 16.6875 24.2825 16.6875 25V26.75C16.6875 27.4675 17.2825 28.0625 18 28.0625C18.7175 28.0625 19.3125 27.4675 19.3125 26.75V25C19.3125 24.2825 18.7175 23.6875 18 23.6875Z" fill="#4A0EB9"/>
<path d="M18 7.9375C15.34 7.9375 13.1875 10.09 13.1875 12.75C13.1875 13.4675 13.7825 14.0625 14.5 14.0625C15.2175 14.0625 15.8125 13.4675 15.8125 12.75C15.8125 11.5425 16.7925 10.5625 18 10.5625C19.2075 10.5625 20.1875 11.5425 20.1875 12.75C20.1875 13.45 19.855 14.0975 19.295 14.5175C17.6325 15.725 16.6875 17.475 16.6875 19.295V19.75C16.6875 20.4675 17.2825 21.0625 18 21.0625C18.7175 21.0625 19.3125 20.4675 19.3125 19.75V19.295C19.3125 17.965 20.275 17.055 20.8525 16.635C22.0775 15.725 22.8125 14.2725 22.8125 12.75C22.8125 10.09 20.66 7.9375 18 7.9375Z" fill="#4A0EB9"/>
</svg>
