<svg width="146" height="148" viewBox="0 0 146 148" fill="none" xmlns="http://www.w3.org/2000/svg">
<path fill-rule="evenodd" clip-rule="evenodd" d="M23.2007 9.56497C22.026 8.37409 20.1041 8.37409 18.9293 9.56497L9.3784 19.2467C8.226 20.4149 8.226 22.2922 9.3784 23.4604L56.7392 71.47C57.8916 72.6381 57.8916 74.5155 56.7392 75.6836L9.3784 123.693C8.226 124.861 8.226 126.739 9.3784 127.907L18.9293 137.589C20.1041 138.78 22.026 138.78 23.2007 137.589L84.2692 75.6836C85.4216 74.5155 85.4216 72.6381 84.2692 71.47L23.2007 9.56497ZM71.8674 9.56497C70.6926 8.3741 68.7708 8.37409 67.596 9.56497L58.0451 19.2467C56.8927 20.4149 56.8927 22.2922 58.0451 23.4604L105.406 71.47C106.558 72.6381 106.558 74.5155 105.406 75.6836L58.0451 123.693C56.8927 124.861 56.8927 126.739 58.0451 127.907L67.596 137.589C68.7708 138.78 70.6926 138.78 71.8674 137.589L132.936 75.6836C134.088 74.5155 134.088 72.6381 132.936 71.47L71.8674 9.56497Z" fill="#4A0EB9"/>
</svg>
