<svg width="229" height="81" viewBox="0 0 229 81" fill="none" xmlns="http://www.w3.org/2000/svg">
<path d="M175.374 70.399H182.05V60.385H202.078V53.709H182.05V47.0331H197.071C206.274 47.0331 213.761 39.546 213.761 30.3432C213.761 21.1404 206.274 13.6533 197.071 13.6533H178.712C177.827 13.6533 176.978 14.0049 176.352 14.6309C175.726 15.2569 175.374 16.106 175.374 16.9912V40.3571H165.36V47.0331H175.374V53.709H165.36V60.385H175.374V70.399ZM182.05 20.3292H197.071C202.592 20.3292 207.085 24.8221 207.085 30.3432C207.085 35.8642 202.592 40.3571 197.071 40.3571H182.05V20.3292Z" fill="#4A0EB9"/>
<path d="M126.075 70.399H132.751V60.3851L152.779 60.3851V53.7091L132.751 53.7091V47.0331H147.772C156.974 47.0331 164.462 39.546 164.462 30.3432C164.462 21.1404 156.974 13.6533 147.772 13.6533L129.413 13.6533C128.527 13.6533 127.678 14.005 127.052 14.631C126.426 15.257 126.075 16.106 126.075 16.9913V40.3572H116.061V47.0331H126.075V53.7091H116.061V60.3851H126.075V70.399ZM132.751 20.3293L147.772 20.3293C153.293 20.3293 157.786 24.8222 157.786 30.3432C157.786 35.8643 153.293 40.3572 147.772 40.3572H132.751V20.3293Z" fill="#4A0EB9"/>
<path d="M76.7754 70.399H83.4514V60.385L103.479 60.385V53.709L83.4514 53.709V47.0331H98.4723C107.675 47.0331 115.162 39.546 115.162 30.3432C115.162 21.1404 107.675 13.6533 98.4723 13.6533L80.1134 13.6533C79.2281 13.6533 78.3791 14.0049 77.7531 14.6309C77.1271 15.2569 76.7754 16.106 76.7754 16.9912V40.3571H66.7615V47.0331H76.7754V53.709H66.7615V60.385H76.7754V70.399ZM83.4514 20.3292L98.4723 20.3292C103.993 20.3292 108.486 24.8221 108.486 30.3432C108.486 35.8642 103.993 40.3571 98.4723 40.3571H83.4514V20.3292Z" fill="#4A0EB9"/>
<path d="M27.4759 70.399H34.1518V60.3851H54.1797V53.7091H34.1518V47.0331H49.1727C58.3756 47.0331 65.8627 39.546 65.8627 30.3432C65.8627 21.1404 58.3756 13.6533 49.1727 13.6533L30.8138 13.6533C29.9286 13.6533 29.0795 14.005 28.4535 14.631C27.8275 15.257 27.4759 16.106 27.4759 16.9913V40.3572H17.4619L17.4619 47.0331H27.4759V53.7091H17.4619V60.3851H27.4759L27.4759 70.399ZM34.1518 20.3293H49.1727C54.6938 20.3293 59.1867 24.8222 59.1867 30.3432C59.1867 35.8643 54.6938 40.3572 49.1727 40.3572H34.1518V20.3293Z" fill="#4A0EB9"/>
</svg>
