<svg width="56" height="58" viewBox="0 0 56 58" fill="none" xmlns="http://www.w3.org/2000/svg">
<path fill-rule="evenodd" clip-rule="evenodd" d="M1.09622 0.879645C1.57121 0.321561 2.26716 0 3.00002 0H52.5C53.3114 0 54.0723 0.393734 54.5409 1.05607C55.0095 1.7184 55.1275 2.56696 54.8575 3.33205L49.1505 19.5019L55.3587 37.1713C55.6274 37.9362 55.5086 38.7839 55.0398 39.4454C54.5711 40.1069 53.8107 40.5 53 40.5H11.685L13.9679 54.6004C14.1886 55.9634 13.2625 57.2472 11.8996 57.4679C10.5366 57.6885 9.25282 56.7625 9.03215 55.3996L0.532154 2.89956C0.415027 2.17612 0.621225 1.43773 1.09622 0.879645ZM10.8754 35.5H49.4718L44.1414 20.3287C43.9525 19.7912 43.9529 19.2052 44.1425 18.6679L48.9665 5H5.93734L10.8754 35.5Z" fill="#312C2C"/>
</svg>
