<svg width="73" height="47" viewBox="0 0 73 47" fill="none" xmlns="http://www.w3.org/2000/svg">
<path d="M61.0222 20.5555C61.0222 20.5555 62.3774 2.28501 45.6274 0.201555C31.2678 -1.26334 26.8988 12.0691 26.8988 12.0691C26.8988 12.0691 22.5759 7.91474 16.7074 11.3085C11.458 14.5475 12.3845 20.4782 12.3845 20.4782C12.3845 20.4782 0.722778 22.7414 0.722778 34.6215C0.984204 46.4849 13.3862 46.604 13.3862 46.604H37.1258L26.6688 36.1553H32.943V23.617H41.3086V36.1553H47.5828L37.1258 46.604H59.0165C59.0165 46.604 70.5611 46.6165 72.1819 35.3299C72.9537 22.9879 61.0222 20.5555 61.0222 20.5555Z" fill="white"/>
</svg>
