<svg width="20" height="20" viewBox="0 0 20 20" fill="none" xmlns="http://www.w3.org/2000/svg">
<g id="icon/light">
<path id="icon" fill-rule="evenodd" clip-rule="evenodd" d="M13.3333 13.2625V15C13.3333 16.841 11.841 18.3333 10 18.3333C8.15906 18.3333 6.66667 16.841 6.66667 15V13.2625C6.66667 13.0998 6.60903 12.9222 6.47289 12.6885C6.38542 12.5383 6.27099 12.3734 6.09834 12.145L6.04027 12.0692C5.925 11.919 5.67321 11.5908 5.58026 11.4652C4.63871 10.1935 4.16667 9.05823 4.16667 7.50001C4.16667 4.27834 6.77834 1.66667 10 1.66667C13.2217 1.66667 15.8333 4.27834 15.8333 7.50001C15.8333 9.09231 15.3549 10.2707 14.4213 11.54C14.3224 11.6745 14.0728 11.9989 13.9249 12.191C13.8671 12.2662 13.8248 12.3212 13.8132 12.3366C13.6246 12.5875 13.5074 12.7654 13.4312 12.9199C13.3623 13.0597 13.3333 13.1678 13.3333 13.2625ZM11.7031 12.8661C11.7456 12.6356 11.8246 12.4094 11.9365 12.1826C12.0681 11.9159 12.2354 11.6619 12.481 11.3351C12.4978 11.3127 12.5522 11.2421 12.6223 11.1508L12.6224 11.1507C12.7725 10.9556 12.995 10.6663 13.0787 10.5525C13.8192 9.54566 14.1667 8.68993 14.1667 7.5C14.1667 5.19882 12.3012 3.33334 10 3.33334C7.69882 3.33334 5.83334 5.19882 5.83334 7.5C5.83334 8.6488 6.17222 9.46385 6.91975 10.4735C6.99999 10.5819 7.22654 10.8773 7.34897 11.0369L7.34909 11.0371L7.4279 11.14C7.63729 11.417 7.78542 11.6305 7.91307 11.8496C8.11185 12.1909 8.24383 12.5236 8.301 12.8685C8.8203 13.1802 9.38167 13.3333 10 13.3333C10.62 13.3333 11.1826 13.1794 11.7031 12.8661ZM11.6667 15V14.7187C11.1396 14.9058 10.5828 15 10 15C9.41722 15 8.8604 14.9058 8.33334 14.7187V15C8.33334 15.9205 9.07953 16.6667 10 16.6667C10.9205 16.6667 11.6667 15.9205 11.6667 15Z" fill="#312C2C"/>
</g>
</svg>
