<svg width="83" height="16" viewBox="0 0 83 16" fill="none" xmlns="http://www.w3.org/2000/svg">
<path id="Arrow 1" d="M1 7C0.447715 7 -4.82823e-08 7.44772 0 8C4.82823e-08 8.55228 0.447715 9 1 9L1 7ZM82.7071 8.7071C83.0976 8.31658 83.0976 7.68341 82.7071 7.29289L76.3431 0.928926C75.9526 0.538401 75.3195 0.538401 74.9289 0.928926C74.5384 1.31945 74.5384 1.95262 74.9289 2.34314L80.5858 7.99999L74.9289 13.6568C74.5384 14.0474 74.5384 14.6805 74.9289 15.0711C75.3195 15.4616 75.9526 15.4616 76.3431 15.0711L82.7071 8.7071ZM1 9L82 8.99999L82 6.99999L1 7L1 9Z" fill="#4A0EB9"/>
</svg>
