<svg width="20" height="20" viewBox="0 0 20 20" fill="none" xmlns="http://www.w3.org/2000/svg">
<g id="icon/target-map">
<path id="icon" fill-rule="evenodd" clip-rule="evenodd" d="M10.8333 9.91666V15.8333H9.16667V9.91666C7.2648 9.5306 5.83334 7.84914 5.83334 5.83334C5.83334 3.53215 7.69882 1.66667 10 1.66667C12.3012 1.66667 14.1667 3.53215 14.1667 5.83334C14.1667 7.84914 12.7352 9.5306 10.8333 9.91666ZM7.50001 11.7978V13.487C5.05599 13.7921 3.33334 14.489 3.33334 15C3.33334 15.6725 6.31596 16.6667 10 16.6667C13.6841 16.6667 16.6667 15.6725 16.6667 15C16.6667 14.489 14.944 13.7921 12.5 13.487V11.7978C15.8799 12.1681 18.3333 13.3065 18.3333 15C18.3333 17.089 14.6002 18.3333 10 18.3333C5.39978 18.3333 1.66667 17.089 1.66667 15C1.66667 13.3065 4.12011 12.1681 7.50001 11.7978ZM12.5 5.83334C12.5 7.21405 11.3807 8.33334 10 8.33334C8.61929 8.33334 7.5 7.21405 7.5 5.83334C7.5 4.45263 8.61929 3.33334 10 3.33334C11.3807 3.33334 12.5 4.45263 12.5 5.83334Z" fill="#312C2C"/>
</g>
</svg>
