<svg width="43" height="45" viewBox="0 0 43 45" fill="none" xmlns="http://www.w3.org/2000/svg">
<path d="M39.4314 14.9567C38.3672 14.6729 37.2322 14.8857 36.2981 15.4533L23.4697 23.1977C22.4528 23.8125 21.838 24.9121 21.838 26.0944V33.6969C21.838 34.8674 22.4647 35.967 23.4697 36.57L36.4164 44.2789C37.043 44.6455 37.7406 44.8346 38.4382 44.8346C39.4432 44.8346 40.4482 44.4563 41.2167 43.6878C41.9971 42.9192 42.3872 41.8433 42.3872 40.7437V18.7875C42.3872 17.0258 41.2167 15.4296 39.4314 14.9567ZM28.1518 28.5064C28.1518 28.0335 28.4 27.6078 28.802 27.3595L34.0517 24.1908C34.9384 23.6588 36.0735 24.2972 36.0735 25.3377V34.5718C36.0735 35.5177 35.0448 36.0971 34.2408 35.6123L28.8139 32.3845C28.4119 32.148 28.1636 31.7106 28.1636 31.2376V28.5064H28.1518Z" fill="white"/>
<path d="M2.95587 29.8779C4.01999 30.1617 5.15504 29.9489 6.0891 29.3814L18.9176 21.637C19.9344 21.0222 20.5492 19.9226 20.5492 18.7402V11.1377C20.5492 9.9672 19.9226 8.86761 18.9176 8.26462L5.97086 0.555705C5.34422 0.189177 4.64663 0 3.94904 0C2.94405 0 1.93905 0.378353 1.17052 1.14688C0.390174 1.91541 0 2.99134 0 4.09093V26.0471C0 27.8088 1.17053 29.405 2.95587 29.8779ZM14.2355 16.3282C14.2355 16.8012 13.9872 17.2268 13.5852 17.4751L8.34738 20.6438C7.46062 21.1759 6.32557 20.5374 6.32557 19.4969V10.2628C6.32557 9.31691 7.35421 8.73756 8.15821 9.22232L13.5852 12.4501C13.9872 12.6866 14.2355 13.1241 14.2355 13.597V16.3282Z" fill="white"/>
</svg>
