<svg width="92" height="15" viewBox="0 0 92 15" fill="none" xmlns="http://www.w3.org/2000/svg">
<path d="M2.65191 14.0428H0.417202C0.369902 14.0428 0.334503 14.0073 0.334503 13.9482L0.358105 0.422102C0.358105 0.374802 0.393605 0.339401 0.452705 0.339401H2.6401C2.6992 0.339401 2.7346 0.363002 2.7346 0.422102L2.711 5.7782H5.6669V0.422102C5.6669 0.374802 5.6905 0.339401 5.7496 0.339401H7.937C7.9961 0.339401 8.0316 0.363002 8.0316 0.422102L8.06701 13.9482C8.06701 14.0073 8.0316 14.0428 7.9724 14.0428H5.7733C5.7142 14.0428 5.6787 14.0073 5.6787 13.9482V8.1547H2.72281V13.9482C2.72281 14.0191 2.69921 14.0428 2.65191 14.0428Z" fill="#4A0EB9"/>
<path d="M12.0161 14.0428H9.7814C9.7223 14.0428 9.6868 14.0073 9.6868 13.9482L9.7105 0.422102C9.7105 0.374802 9.7341 0.339401 9.7932 0.339401H12.0042C12.0515 0.339401 12.087 0.363002 12.087 0.422102L12.1106 13.9482C12.087 14.0191 12.0634 14.0428 12.0161 14.0428Z" fill="#4A0EB9"/>
<path d="M16.1306 14.0428H13.8959C13.8486 14.0428 13.8132 14.0073 13.8132 13.9482L13.8486 0.422102C13.8486 0.374802 13.8723 0.339401 13.9314 0.339401H17.9159C18.6253 0.339401 19.2756 0.516702 19.8786 0.859602C20.4698 1.2025 20.9546 1.6754 21.3093 2.2548C21.664 2.8341 21.8413 3.4962 21.8413 4.2411C21.8413 4.7259 21.7704 5.1633 21.6167 5.5535C21.4748 5.9437 21.2974 6.2747 21.0964 6.5467C20.8954 6.8186 20.7181 7.0196 20.5644 7.1379C21.2738 7.93 21.6285 8.8523 21.6285 9.9164L21.6521 13.96C21.6521 14.0191 21.6167 14.0546 21.5576 14.0546H19.3229C19.2756 14.0546 19.2402 14.031 19.2402 13.9955V9.9164C19.2402 9.4434 19.0746 9.0296 18.7436 8.6867C18.4125 8.3439 17.9987 8.1665 17.5139 8.1665H16.2133L16.1897 13.96C16.2015 14.0191 16.1779 14.0428 16.1306 14.0428ZM17.9159 2.7041H16.2252V5.8018H17.9159C18.3179 5.8018 18.6844 5.6481 18.9919 5.3525C19.3111 5.0569 19.4648 4.6786 19.4648 4.2411C19.4648 3.8273 19.3111 3.4608 19.0037 3.1652C18.7081 2.8578 18.3416 2.7041 17.9159 2.7041Z" fill="#4A0EB9"/>
<path d="M29.7513 14.0428H23.3903C23.343 14.0428 23.3075 14.0073 23.3075 13.9482L23.3311 0.422102C23.3311 0.374802 23.3548 0.339401 23.4139 0.339401H29.7395C29.7868 0.339401 29.8222 0.374803 29.8222 0.433903V2.6331C29.8222 2.6804 29.7986 2.7159 29.7395 2.7159H25.6958V5.79H29.7395C29.7868 5.79 29.8222 5.8136 29.8222 5.8727L29.8459 8.1074C29.8459 8.1547 29.8222 8.1902 29.7631 8.1902H25.7077V11.6308H29.7631C29.8104 11.6308 29.8459 11.6663 29.8459 11.7254V13.9718C29.8341 14.0191 29.7986 14.0428 29.7513 14.0428Z" fill="#4A0EB9"/>
<path d="M34.93 14.2438C34.2324 14.2438 33.5821 14.0665 33.0028 13.6999C32.4234 13.3452 31.9505 12.8605 31.6076 12.2575C31.2529 11.6545 31.0873 11.0042 31.0873 10.2829V9.3844C31.0873 9.3134 31.1228 9.2779 31.1819 9.2779H33.3929C33.4402 9.2779 33.4757 9.3134 33.4757 9.3844V10.2829C33.4757 10.7086 33.6176 11.0869 33.9132 11.3943C34.1969 11.7018 34.5516 11.8555 34.9536 11.8555C35.3675 11.8555 35.7103 11.7018 36.0059 11.3825C36.3015 11.0633 36.4434 10.6968 36.4434 10.2829C36.4434 9.7982 36.1242 9.3844 35.4975 9.0178C35.3911 8.9587 35.261 8.8759 35.0955 8.7814C34.93 8.6868 34.7408 8.5804 34.5162 8.4621C34.2915 8.3439 34.0787 8.2257 33.8659 8.1074C33.653 7.9892 33.452 7.8709 33.251 7.7645C32.5298 7.3389 31.9978 6.8068 31.6549 6.1684C31.3002 5.5299 31.1346 4.8087 31.1346 4.0165C31.1346 3.2834 31.312 2.6213 31.6785 2.0301C32.0332 1.4508 32.5062 0.9897 33.0855 0.635C33.6649 0.2921 34.2915 0.1147 34.9773 0.1147C35.6749 0.1147 36.3133 0.2921 36.9045 0.635C37.4839 0.9897 37.9568 1.4508 38.2997 2.042C38.6544 2.6213 38.8199 3.2834 38.8199 4.0047V5.6245C38.8199 5.6718 38.7963 5.7073 38.7371 5.7073H36.5261C36.4789 5.7073 36.4434 5.6836 36.4434 5.6245L36.4197 4.0047C36.4197 3.5436 36.2779 3.1652 35.9823 2.8814C35.6985 2.5977 35.3556 2.444 34.9536 2.444C34.5516 2.444 34.2087 2.5977 33.9132 2.9051C33.6294 3.2125 33.4757 3.579 33.4757 4.0047C33.4757 4.4303 33.5703 4.7968 33.7476 5.0806C33.925 5.3644 34.2679 5.6481 34.7526 5.9083C34.7999 5.9319 34.9182 6.0028 35.1073 6.0974C35.2965 6.2038 35.4975 6.3103 35.7222 6.4403C35.9468 6.5704 36.1596 6.6768 36.337 6.7714C36.5261 6.866 36.6326 6.9251 36.668 6.9487C37.3183 7.3152 37.8386 7.7645 38.2169 8.2966C38.5953 8.8287 38.7844 9.4789 38.7844 10.2593C38.7844 11.0042 38.6071 11.6781 38.2642 12.2811C37.9095 12.8723 37.4484 13.3452 36.8572 13.6999C36.2897 14.0665 35.6394 14.2438 34.93 14.2438Z" fill="#4A0EB9"/>
<path d="M48.6216 14.2438C47.924 14.2438 47.2737 14.0665 46.6943 13.6999C46.115 13.3452 45.642 12.8605 45.2992 12.2575C44.9445 11.6545 44.7789 11.0042 44.7789 10.2829V9.3844C44.7789 9.3134 44.8144 9.2779 44.8735 9.2779H47.0845C47.1318 9.2779 47.1673 9.3134 47.1673 9.3844V10.2829C47.1673 10.7086 47.3092 11.0869 47.6047 11.3943C47.8885 11.7018 48.2432 11.8555 48.6452 11.8555C49.059 11.8555 49.4019 11.7018 49.6975 11.3825C49.9813 11.0633 50.135 10.6968 50.135 10.2829C50.135 9.7982 49.8157 9.3844 49.1891 9.0178C49.0827 8.9587 48.9526 8.8759 48.7871 8.7814C48.6216 8.6868 48.4324 8.5804 48.2077 8.4621C47.9831 8.3439 47.7703 8.2257 47.5575 8.1074C47.3446 7.9892 47.1436 7.8709 46.9426 7.7645C46.2214 7.3389 45.6893 6.8068 45.3464 6.1684C44.9917 5.5299 44.8262 4.8087 44.8262 4.0165C44.8262 3.2834 45.0036 2.6213 45.3701 2.0301C45.7248 1.4508 46.1978 0.9897 46.7771 0.635C47.3565 0.2921 47.9831 0.1147 48.6689 0.1147C49.3664 0.1147 50.0049 0.2921 50.5961 0.635C51.1754 0.9897 51.6484 1.4508 51.9913 2.042C52.346 2.6213 52.511 3.2834 52.511 4.0047V5.6245C52.511 5.6718 52.488 5.7073 52.429 5.7073H50.2177C50.1704 5.7073 50.135 5.6836 50.135 5.6245L50.1113 4.0047C50.1113 3.5436 49.9694 3.1652 49.6739 2.8814C49.3901 2.5977 49.0472 2.444 48.6452 2.444C48.2432 2.444 47.9003 2.5977 47.6047 2.9051C47.321 3.2125 47.1673 3.579 47.1673 4.0047C47.1673 4.4303 47.2619 4.7968 47.4392 5.0806C47.6166 5.3644 47.9594 5.6481 48.4442 5.9083C48.4915 5.9319 48.6097 6.0028 48.7989 6.0974C48.9881 6.2038 49.1891 6.3103 49.4137 6.4403C49.6384 6.5704 49.8512 6.6768 50.0286 6.7714C50.2177 6.866 50.3241 6.9251 50.3596 6.9487C51.0099 7.3152 51.5301 7.7645 51.9085 8.2966C52.287 8.8287 52.476 9.4789 52.476 10.2593C52.476 11.0042 52.299 11.6781 51.9558 12.2811C51.6011 12.8723 51.14 13.3452 50.5488 13.6999C49.9694 14.0665 49.331 14.2438 48.6216 14.2438Z" fill="#4A0EB9"/>
<path d="M58.045 14.0428H55.822C55.763 14.0428 55.739 14.0073 55.739 13.9482V2.7159H53.185C53.126 2.7159 53.091 2.6804 53.091 2.6213L53.114 0.422102C53.114 0.374802 53.138 0.339401 53.197 0.339401H60.682C60.752 0.339401 60.788 0.363002 60.788 0.422102V2.6213C60.788 2.6804 60.764 2.7159 60.705 2.7159H58.116L58.139 13.9482C58.128 14.0191 58.104 14.0428 58.045 14.0428Z" fill="#4A0EB9"/>
<path d="M65.34 14.2438C64.642 14.2438 64.004 14.0664 63.413 13.6999C62.822 13.3452 62.349 12.8604 62.006 12.2574C61.651 11.6544 61.486 10.9923 61.486 10.2711L61.521 0.422102C61.521 0.374802 61.545 0.339401 61.604 0.339401H63.815C63.862 0.339401 63.898 0.363002 63.898 0.422102V10.2711C63.898 10.7086 64.039 11.0869 64.323 11.4061C64.607 11.7136 64.95 11.8673 65.352 11.8673C65.777 11.8673 66.132 11.7136 66.404 11.4061C66.688 11.0987 66.83 10.7204 66.83 10.2711V0.422102C66.83 0.374802 66.853 0.339401 66.913 0.339401H69.124C69.171 0.339401 69.206 0.363002 69.206 0.422102L69.242 10.2711C69.242 10.9923 69.064 11.6663 68.722 12.2693C68.367 12.8723 67.906 13.3452 67.315 13.7117C66.723 14.0546 66.073 14.2438 65.34 14.2438Z" fill="#4A0EB9"/>
<path d="M74.397 14.0308L70.873 14.0545C70.814 14.0545 70.779 14.019 70.779 13.9599L70.814 0.433804C70.814 0.386504 70.838 0.351105 70.897 0.351105L74.574 0.327404C75.307 0.303804 75.969 0.469303 76.56 0.824003C77.152 1.1787 77.636 1.6516 77.991 2.2546C78.346 2.8576 78.523 3.5198 78.523 4.241V9.8926C78.523 10.6493 78.346 11.3469 77.979 11.9735C77.613 12.6002 77.116 13.085 76.501 13.4633C75.875 13.818 75.177 14.019 74.397 14.0308ZM74.574 2.6803L73.203 2.7039L73.179 11.6307H74.397C74.882 11.6307 75.295 11.4651 75.626 11.1223C75.957 10.7794 76.123 10.3774 76.123 9.9044V4.2292C76.123 3.8153 75.969 3.4488 75.662 3.1414C75.366 2.8222 75 2.6685 74.574 2.6803Z" fill="#4A0EB9"/>
<path d="M82.389 14.0428H80.155C80.096 14.0428 80.06 14.0073 80.06 13.9482L80.084 0.422102C80.084 0.374802 80.107 0.339401 80.167 0.339401H82.378C82.425 0.339401 82.46 0.363002 82.46 0.422102L82.484 13.9482C82.472 14.0191 82.449 14.0428 82.389 14.0428Z" fill="#4A0EB9"/>
<path d="M87.84 14.2438C87.143 14.2438 86.492 14.0665 85.913 13.6999C85.334 13.3452 84.861 12.8605 84.506 12.2575C84.151 11.6545 83.974 11.0042 83.974 10.2829L83.997 4.0401C83.997 3.3071 84.175 2.6568 84.53 2.0656C84.872 1.4744 85.345 1.0015 85.937 0.646799C86.528 0.292099 87.166 0.1147 87.864 0.1147C88.585 0.1147 89.223 0.292099 89.791 0.646799C90.37 1.0015 90.831 1.4744 91.186 2.0656C91.541 2.6568 91.706 3.3189 91.706 4.0401L91.73 10.2829C91.73 11.0042 91.553 11.6545 91.21 12.2575C90.855 12.8605 90.394 13.3452 89.803 13.6999C89.2 14.0546 88.549 14.2438 87.84 14.2438ZM87.84 11.8673C88.242 11.8673 88.585 11.7018 88.881 11.3825C89.176 11.0633 89.318 10.6968 89.318 10.2948L89.294 4.052C89.294 3.6145 89.153 3.248 88.881 2.9406C88.609 2.645 88.254 2.4913 87.828 2.4913C87.426 2.4913 87.083 2.6331 86.788 2.9287C86.492 3.2243 86.35 3.5908 86.35 4.0401V10.2829C86.35 10.7086 86.492 11.0869 86.788 11.3943C87.095 11.7136 87.438 11.8673 87.84 11.8673Z" fill="#4A0EB9"/>
</svg>
