<svg width="93" height="16" viewBox="0 0 93 16" fill="none" xmlns="http://www.w3.org/2000/svg">
<g clip-path="url(#clip0_580_78)">
<path d="M3.15188 14.5428H0.917172C0.869872 14.5428 0.834473 14.5073 0.834473 14.4482L0.858075 0.922056C0.858075 0.874756 0.893575 0.839355 0.952675 0.839355H3.14007C3.19917 0.839355 3.23457 0.862956 3.23457 0.922056L3.21097 6.27815H6.16687V0.922056C6.16687 0.874756 6.19047 0.839355 6.24957 0.839355H8.43697C8.49607 0.839355 8.53157 0.862956 8.53157 0.922056L8.56698 14.4482C8.56698 14.5073 8.53157 14.5428 8.47237 14.5428H6.27327C6.21417 14.5428 6.17867 14.5073 6.17867 14.4482V8.65465H3.22278V14.4482C3.22278 14.5191 3.19918 14.5428 3.15188 14.5428Z" fill="white"/>
<path d="M12.5161 14.5428H10.2814C10.2223 14.5428 10.1868 14.5073 10.1868 14.4482L10.2105 0.922056C10.2105 0.874756 10.2341 0.839355 10.2932 0.839355H12.5042C12.5515 0.839355 12.587 0.862956 12.587 0.922056L12.6106 14.4482C12.587 14.5191 12.5634 14.5428 12.5161 14.5428Z" fill="white"/>
<path d="M16.6306 14.5428H14.3959C14.3486 14.5428 14.3132 14.5073 14.3132 14.4482L14.3486 0.922056C14.3486 0.874756 14.3723 0.839355 14.4314 0.839355H18.4159C19.1253 0.839355 19.7756 1.01666 20.3786 1.35956C20.9698 1.70245 21.4546 2.17535 21.8093 2.75475C22.164 3.33405 22.3413 3.99615 22.3413 4.74105C22.3413 5.22585 22.2704 5.66325 22.1167 6.05345C21.9748 6.44365 21.7974 6.77465 21.5964 7.04665C21.3954 7.31855 21.2181 7.51955 21.0644 7.63785C21.7738 8.42995 22.1285 9.35225 22.1285 10.4164L22.1521 14.46C22.1521 14.5191 22.1167 14.5546 22.0576 14.5546H19.8229C19.7756 14.5546 19.7402 14.531 19.7402 14.4955V10.4164C19.7402 9.94335 19.5746 9.52955 19.2436 9.18665C18.9125 8.84385 18.4987 8.66645 18.0139 8.66645H16.7133L16.6897 14.46C16.7015 14.5191 16.6779 14.5428 16.6306 14.5428ZM18.4159 3.20405H16.7252V6.30175H18.4159C18.8179 6.30175 19.1844 6.14805 19.4919 5.85245C19.8111 5.55685 19.9648 5.17855 19.9648 4.74105C19.9648 4.32725 19.8111 3.96075 19.5037 3.66515C19.2081 3.35775 18.8416 3.20405 18.4159 3.20405Z" fill="white"/>
<path d="M30.2513 14.5428H23.8903C23.843 14.5428 23.8075 14.5073 23.8075 14.4482L23.8311 0.922056C23.8311 0.874756 23.8548 0.839355 23.9139 0.839355H30.2395C30.2868 0.839355 30.3222 0.874757 30.3222 0.933857V3.13305C30.3222 3.18035 30.2986 3.21585 30.2395 3.21585H26.1958V6.28995H30.2395C30.2868 6.28995 30.3222 6.31355 30.3222 6.37265L30.3459 8.60735C30.3459 8.65465 30.3222 8.69015 30.2631 8.69015H26.2077V12.1308H30.2631C30.3104 12.1308 30.3459 12.1663 30.3459 12.2254V14.4718C30.3341 14.5191 30.2986 14.5428 30.2513 14.5428Z" fill="white"/>
<path d="M35.43 14.7438C34.7324 14.7438 34.0821 14.5665 33.5028 14.1999C32.9234 13.8452 32.4505 13.3605 32.1076 12.7575C31.7529 12.1545 31.5873 11.5042 31.5873 10.7829V9.88445C31.5873 9.81345 31.6228 9.77795 31.6819 9.77795H33.8929C33.9402 9.77795 33.9757 9.81345 33.9757 9.88445V10.7829C33.9757 11.2086 34.1176 11.5869 34.4132 11.8943C34.6969 12.2018 35.0516 12.3555 35.4536 12.3555C35.8675 12.3555 36.2103 12.2018 36.5059 11.8825C36.8015 11.5633 36.9434 11.1968 36.9434 10.7829C36.9434 10.2982 36.6242 9.88445 35.9975 9.51785C35.8911 9.45875 35.761 9.37595 35.5955 9.28145C35.43 9.18685 35.2408 9.08045 35.0162 8.96215C34.7915 8.84395 34.5787 8.72575 34.3659 8.60745C34.153 8.48925 33.952 8.37095 33.751 8.26455C33.0298 7.83895 32.4978 7.30685 32.1549 6.66845C31.8002 6.02995 31.6346 5.30875 31.6346 4.51655C31.6346 3.78345 31.812 3.12135 32.1785 2.53015C32.5332 1.95085 33.0062 1.48975 33.5855 1.13505C34.1649 0.792146 34.7915 0.614746 35.4773 0.614746C36.1749 0.614746 36.8133 0.792146 37.4045 1.13505C37.9839 1.48975 38.4568 1.95085 38.7997 2.54205C39.1544 3.12135 39.3199 3.78345 39.3199 4.50475V6.12455C39.3199 6.17185 39.2963 6.20735 39.2371 6.20735H37.0261C36.9789 6.20735 36.9434 6.18365 36.9434 6.12455L36.9197 4.50475C36.9197 4.04365 36.7779 3.66525 36.4823 3.38145C36.1985 3.09775 35.8556 2.94405 35.4536 2.94405C35.0516 2.94405 34.7087 3.09775 34.4132 3.40515C34.1294 3.71255 33.9757 4.07905 33.9757 4.50475C33.9757 4.93035 34.0703 5.29685 34.2476 5.58065C34.425 5.86445 34.7679 6.14815 35.2526 6.40835C35.2999 6.43195 35.4182 6.50285 35.6073 6.59745C35.7965 6.70385 35.9975 6.81035 36.2222 6.94035C36.4468 7.07045 36.6596 7.17685 36.837 7.27145C37.0261 7.36605 37.1326 7.42515 37.168 7.44875C37.8183 7.81525 38.3386 8.26455 38.7169 8.79665C39.0953 9.32875 39.2844 9.97895 39.2844 10.7593C39.2844 11.5042 39.1071 12.1781 38.7642 12.7811C38.4095 13.3723 37.9484 13.8452 37.3572 14.1999C36.7897 14.5665 36.1394 14.7438 35.43 14.7438Z" fill="white"/>
<path d="M49.1216 14.7438C48.424 14.7438 47.7737 14.5665 47.1943 14.1999C46.615 13.8452 46.142 13.3605 45.7992 12.7575C45.4445 12.1545 45.2789 11.5042 45.2789 10.7829V9.88445C45.2789 9.81345 45.3144 9.77795 45.3735 9.77795H47.5845C47.6318 9.77795 47.6673 9.81345 47.6673 9.88445V10.7829C47.6673 11.2086 47.8092 11.5869 48.1047 11.8943C48.3885 12.2018 48.7432 12.3555 49.1452 12.3555C49.559 12.3555 49.9019 12.2018 50.1975 11.8825C50.4813 11.5633 50.635 11.1968 50.635 10.7829C50.635 10.2982 50.3157 9.88445 49.6891 9.51785C49.5827 9.45875 49.4526 9.37595 49.2871 9.28145C49.1216 9.18685 48.9324 9.08045 48.7077 8.96215C48.4831 8.84395 48.2703 8.72575 48.0575 8.60745C47.8446 8.48925 47.6436 8.37095 47.4426 8.26455C46.7214 7.83895 46.1893 7.30685 45.8464 6.66845C45.4917 6.02995 45.3262 5.30875 45.3262 4.51655C45.3262 3.78345 45.5036 3.12135 45.8701 2.53015C46.2248 1.95085 46.6978 1.48975 47.2771 1.13505C47.8565 0.792146 48.4831 0.614746 49.1689 0.614746C49.8664 0.614746 50.5049 0.792146 51.0961 1.13505C51.6754 1.48975 52.1484 1.95085 52.4913 2.54205C52.846 3.12135 53.011 3.78345 53.011 4.50475V6.12455C53.011 6.17185 52.988 6.20735 52.929 6.20735H50.7177C50.6704 6.20735 50.635 6.18365 50.635 6.12455L50.6113 4.50475C50.6113 4.04365 50.4694 3.66525 50.1739 3.38145C49.8901 3.09775 49.5472 2.94405 49.1452 2.94405C48.7432 2.94405 48.4003 3.09775 48.1047 3.40515C47.821 3.71255 47.6673 4.07905 47.6673 4.50475C47.6673 4.93035 47.7619 5.29685 47.9392 5.58065C48.1166 5.86445 48.4594 6.14815 48.9442 6.40835C48.9915 6.43195 49.1097 6.50285 49.2989 6.59745C49.4881 6.70385 49.6891 6.81035 49.9137 6.94035C50.1384 7.07045 50.3512 7.17685 50.5286 7.27145C50.7177 7.36605 50.8241 7.42515 50.8596 7.44875C51.5099 7.81525 52.0301 8.26455 52.4085 8.79665C52.787 9.32875 52.976 9.97895 52.976 10.7593C52.976 11.5042 52.799 12.1781 52.4558 12.7811C52.1011 13.3723 51.64 13.8452 51.0488 14.1999C50.4694 14.5665 49.831 14.7438 49.1216 14.7438Z" fill="white"/>
<path d="M58.5449 14.5428H56.3219C56.2629 14.5428 56.2389 14.5073 56.2389 14.4482V3.21585H53.6849C53.6259 3.21585 53.5909 3.18035 53.5909 3.12125L53.6139 0.922056C53.6139 0.874756 53.6379 0.839355 53.6969 0.839355H61.1819C61.2519 0.839355 61.2879 0.862956 61.2879 0.922056V3.12125C61.2879 3.18035 61.2639 3.21585 61.2049 3.21585H58.6159L58.6389 14.4482C58.6279 14.5191 58.6039 14.5428 58.5449 14.5428Z" fill="white"/>
<path d="M65.84 14.7438C65.142 14.7438 64.504 14.5664 63.913 14.1999C63.322 13.8452 62.849 13.3604 62.506 12.7574C62.151 12.1544 61.986 11.4923 61.986 10.7711L62.021 0.922056C62.021 0.874756 62.045 0.839355 62.104 0.839355H64.315C64.362 0.839355 64.398 0.862956 64.398 0.922056V10.7711C64.398 11.2086 64.539 11.5869 64.823 11.9061C65.107 12.2136 65.45 12.3673 65.852 12.3673C66.277 12.3673 66.632 12.2136 66.904 11.9061C67.188 11.5987 67.33 11.2204 67.33 10.7711V0.922056C67.33 0.874756 67.353 0.839355 67.413 0.839355H69.624C69.671 0.839355 69.706 0.862956 69.706 0.922056L69.742 10.7711C69.742 11.4923 69.564 12.1663 69.222 12.7693C68.867 13.3723 68.406 13.8452 67.815 14.2117C67.223 14.5546 66.573 14.7438 65.84 14.7438Z" fill="white"/>
<path d="M74.8971 14.5308L71.3731 14.5545C71.3141 14.5545 71.2791 14.519 71.2791 14.4599L71.3141 0.933804C71.3141 0.886504 71.3381 0.851105 71.3971 0.851105L75.0741 0.827404C75.8071 0.803804 76.4691 0.969303 77.0601 1.324C77.6521 1.6787 78.1361 2.1516 78.4911 2.7546C78.8461 3.3576 79.0231 4.0198 79.0231 4.741V10.3926C79.0231 11.1493 78.846 11.8469 78.479 12.4735C78.113 13.1002 77.6161 13.585 77.0011 13.9633C76.3751 14.318 75.6771 14.519 74.8971 14.5308ZM75.0741 3.1803L73.7031 3.2039L73.6791 12.1307H74.8971C75.3821 12.1307 75.7951 11.9651 76.1261 11.6223C76.4571 11.2794 76.6231 10.8774 76.6231 10.4044V4.7292C76.6231 4.3153 76.4691 3.9488 76.1621 3.6414C75.8661 3.3222 75.5001 3.1685 75.0741 3.1803Z" fill="white"/>
<path d="M82.8891 14.5428H80.6551C80.5961 14.5428 80.5601 14.5073 80.5601 14.4482L80.5841 0.922056C80.5841 0.874756 80.6071 0.839355 80.6671 0.839355H82.8781C82.9251 0.839355 82.9601 0.862956 82.9601 0.922056L82.9841 14.4482C82.9721 14.5191 82.9491 14.5428 82.8891 14.5428Z" fill="white"/>
<path d="M88.34 14.7438C87.643 14.7438 86.992 14.5665 86.413 14.1999C85.834 13.8452 85.361 13.3605 85.006 12.7575C84.651 12.1545 84.474 11.5042 84.474 10.7829L84.497 4.54015C84.497 3.80715 84.675 3.15685 85.03 2.56565C85.372 1.97445 85.845 1.50155 86.437 1.14685C87.028 0.792145 87.666 0.614746 88.364 0.614746C89.085 0.614746 89.723 0.792145 90.291 1.14685C90.87 1.50155 91.331 1.97445 91.686 2.56565C92.041 3.15685 92.206 3.81895 92.206 4.54015L92.23 10.7829C92.23 11.5042 92.053 12.1545 91.71 12.7575C91.355 13.3605 90.894 13.8452 90.303 14.1999C89.7 14.5546 89.049 14.7438 88.34 14.7438ZM88.34 12.3673C88.742 12.3673 89.085 12.2018 89.381 11.8825C89.676 11.5633 89.818 11.1968 89.818 10.7948L89.794 4.55205C89.794 4.11455 89.653 3.74805 89.381 3.44065C89.109 3.14505 88.754 2.99135 88.328 2.99135C87.926 2.99135 87.583 3.13315 87.288 3.42875C86.992 3.72435 86.85 4.09085 86.85 4.54015V10.7829C86.85 11.2086 86.992 11.5869 87.288 11.8943C87.595 12.2136 87.938 12.3673 88.34 12.3673Z" fill="white"/>
</g>
<defs>
<clipPath id="clip0_580_78">
<rect width="92" height="15" fill="white" transform="translate(0.5 0.5)"/>
</clipPath>
</defs>
</svg>
