<svg width="20" height="20" viewBox="0 0 20 20" fill="none" xmlns="http://www.w3.org/2000/svg">
<g id="icon/micro">
<path id="icon" fill-rule="evenodd" clip-rule="evenodd" d="M10 0.833328C11.841 0.833328 13.3333 2.32571 13.3333 4.16666V9.99999C13.3333 11.8409 11.841 13.3333 10 13.3333C8.15905 13.3333 6.66667 11.8409 6.66667 9.99999V4.16666C6.66667 2.32571 8.15905 0.833328 10 0.833328ZM10.8333 16.6151V17.5H13.3333V19.1667H6.66667V17.5H9.16667V16.6151C5.87808 16.205 3.33334 13.3997 3.33334 9.99999V8.33333H5V9.99999C5 12.7614 7.23858 15 10 15C12.7614 15 15 12.7614 15 9.99999V8.33333H16.6667V9.99999C16.6667 13.3997 14.1219 16.205 10.8333 16.6151ZM8.33334 4.16666C8.33334 3.24619 9.07953 2.49999 10 2.49999C10.9205 2.49999 11.6667 3.24619 11.6667 4.16666V9.99999C11.6667 10.9205 10.9205 11.6667 10 11.6667C9.07953 11.6667 8.33334 10.9205 8.33334 9.99999V4.16666Z" fill="#312C2C"/>
</g>
</svg>
