<svg width="60" height="58" viewBox="0 0 60 58" fill="none" xmlns="http://www.w3.org/2000/svg">
<path fill-rule="evenodd" clip-rule="evenodd" d="M0 14.9817C0 6.97356 6.49187 0.481689 14.5 0.481689H45.5C53.5081 0.481689 60 6.97356 60 14.9817V33.9817C60 41.9898 53.5081 48.4817 45.5 48.4817H14.5C6.49187 48.4817 0 41.9898 0 33.9817V14.9817ZM14.5 5.48169C9.2533 5.48169 5 9.73498 5 14.9817V33.9817C5 39.2284 9.25329 43.4817 14.5 43.4817H45.5C50.7467 43.4817 55 39.2284 55 33.9817V14.9817C55 9.73498 50.7467 5.48169 45.5 5.48169H14.5Z" fill="#312C2C"/>
<path fill-rule="evenodd" clip-rule="evenodd" d="M17.5 54.9817C17.5 53.3248 18.8431 51.9817 20.5 51.9817H40.5C42.1569 51.9817 43.5 53.3248 43.5 54.9817C43.5 56.6385 42.1569 57.9817 40.5 57.9817H20.5C18.8431 57.9817 17.5 56.6385 17.5 54.9817Z" fill="#312C2C"/>
<path d="M23.5 18.4786C23.5 16.9318 25.1808 15.9705 26.514 16.7548L37.5694 23.2579C38.884 24.0312 38.884 25.9324 37.5694 26.7057L26.514 33.2088C25.1808 33.9931 23.5 33.0318 23.5 31.485V18.4786Z" fill="#312C2C"/>
</svg>
