<svg width="46" height="50" viewBox="0 0 46 50" fill="none" xmlns="http://www.w3.org/2000/svg">
<path d="M39.905 7.5H24.75V2.25C24.75 1.78587 24.5656 1.34075 24.2374 1.01256C23.9093 0.684374 23.4641 0.5 23 0.5H6.095C4.54623 0.504616 3.06221 1.12191 1.96706 2.21706C0.871909 3.31221 0.254616 4.79623 0.25 6.345V36.655C0.254616 38.2038 0.871909 39.6878 1.96706 40.7829C3.06221 41.8781 4.54623 42.4954 6.095 42.5H21.25V47.75C21.25 48.2141 21.4344 48.6592 21.7626 48.9874C22.0908 49.3156 22.5359 49.5 23 49.5H39.905C41.4538 49.4954 42.9378 48.8781 44.0329 47.7829C45.1281 46.6878 45.7454 45.2038 45.75 43.655V13.345C45.7454 11.7962 45.1281 10.3122 44.0329 9.21706C42.9378 8.12191 41.4538 7.50462 39.905 7.5ZM24.75 35.5V21.5H42.25V35.5H24.75ZM3.75 28.5V14.5H21.25V28.5H3.75ZM42.25 13.345V18H35.25V11H39.905C40.5269 11 41.1234 11.2471 41.5632 11.6868C42.0029 12.1266 42.25 12.7231 42.25 13.345ZM31.75 11V18H24.75V11H31.75ZM21.25 9.25V11H14.25V4H21.25V9.25ZM6.095 4H10.75V11H3.75V6.345C3.75 5.72307 3.99706 5.12661 4.43683 4.68683C4.87661 4.24706 5.47307 4 6.095 4ZM3.75 36.655V32H10.75V39H6.095C5.47307 39 4.87661 38.7529 4.43683 38.3132C3.99706 37.8734 3.75 37.2769 3.75 36.655ZM14.25 39V32H21.25V39H14.25ZM24.75 40.75V39H31.75V46H24.75V40.75ZM39.905 46H35.25V39H42.25V43.655C42.25 44.2769 42.0029 44.8734 41.5632 45.3132C41.1234 45.7529 40.5269 46 39.905 46Z" fill="white"/>
</svg>
