<svg width="56" height="40" viewBox="0 0 56 40" fill="none" xmlns="http://www.w3.org/2000/svg">
<path d="M53.1189 2.52C52.3467 2.12102 51.4779 1.94698 50.6116 2.0177C49.7452 2.08842 48.9162 2.40106 48.2189 2.92L39.9989 8.92V8.4C39.9989 6.17218 39.1139 4.03561 37.5386 2.4603C35.9633 0.884998 33.8267 0 31.5989 0H8.3989C6.17108 0 4.03451 0.884998 2.4592 2.4603C0.883899 4.03561 -0.00109863 6.17218 -0.00109863 8.4V31.6C-0.00109863 33.8278 0.883899 35.9644 2.4592 37.5397C4.03451 39.115 6.17108 40 8.3989 40H31.5989C33.7056 40.0128 35.7398 39.2317 37.2964 37.8122C38.8531 36.3927 39.8179 34.4389 39.9989 32.34L48.7189 37.36C49.4314 37.7785 50.2426 37.9991 51.0689 37.9991C51.8952 37.9991 52.7064 37.7785 53.4189 37.36C54.232 36.8466 54.8975 36.1303 55.3499 35.2817C55.8022 34.4331 56.0259 33.4813 55.9989 32.52V7.48C56.0216 6.46832 55.7648 5.46998 55.2566 4.59487C54.7485 3.71976 54.0088 3.0018 53.1189 2.52ZM35.9989 31.6C35.9936 32.7653 35.5284 33.8814 34.7044 34.7055C33.8803 35.5295 32.7642 35.9947 31.5989 36H8.3989C7.23357 35.9947 6.11747 35.5295 5.29344 34.7055C4.46942 33.8814 4.00416 32.7653 3.9989 31.6V8.4C4.00416 7.23467 4.46942 6.11856 5.29344 5.29454C6.11747 4.47052 7.23357 4.00526 8.3989 4H31.5989C32.7642 4.00526 33.8803 4.47052 34.7044 5.29454C35.5284 6.11856 35.9936 7.23467 35.9989 8.4V31.6ZM51.9989 32.52C52.0147 32.7871 51.9625 33.0538 51.847 33.2952C51.7316 33.5366 51.5568 33.7447 51.3389 33.9C51.234 33.9656 51.1127 34.0004 50.9889 34.0004C50.8651 34.0004 50.7438 33.9656 50.6389 33.9L39.9989 27.76V13.76L50.5589 6.14C50.6691 6.06855 50.7976 6.03053 50.9289 6.03053C51.0602 6.03053 51.1887 6.06855 51.2989 6.14C51.5301 6.28949 51.7169 6.49821 51.84 6.74443C51.9631 6.99066 52.018 7.26538 51.9989 7.54V32.52Z" fill="white"/>
<path d="M27.0989 18.34L15.0989 10.34C14.8037 10.149 14.4634 10.0392 14.1123 10.0217C13.7612 10.0041 13.4116 10.0794 13.0989 10.24C12.7721 10.4046 12.4967 10.6558 12.3027 10.9661C12.1088 11.2765 12.0037 11.6341 11.9989 12V28C11.9999 28.3618 12.099 28.7166 12.2856 29.0265C12.4723 29.3365 12.7395 29.5899 13.0589 29.76C13.3716 29.9206 13.7212 29.9959 14.0723 29.9783C14.4234 29.9608 14.7637 29.851 15.0589 29.66L27.0589 21.66C27.3311 21.477 27.5542 21.2299 27.7085 20.9405C27.8627 20.651 27.9434 20.328 27.9434 20C27.9434 19.672 27.8627 19.349 27.7085 19.0595C27.5542 18.7701 27.3311 18.5229 27.0589 18.34H27.0989ZM15.9989 24.34V15.74L22.3989 20L15.9989 24.34Z" fill="white"/>
</svg>
