<svg width="50" height="44" viewBox="0 0 50 44" fill="none" xmlns="http://www.w3.org/2000/svg">
<path d="M42.5 0H7.5C5.64348 0 3.86301 0.737498 2.55025 2.05025C1.2375 3.36301 0.5 5.14348 0.5 7V36.75C0.5 38.6065 1.2375 40.387 2.55025 41.6997C3.86301 43.0125 5.64348 43.75 7.5 43.75H42.5C44.3565 43.75 46.137 43.0125 47.4497 41.6997C48.7625 40.387 49.5 38.6065 49.5 36.75V7C49.5 5.14348 48.7625 3.36301 47.4497 2.05025C46.137 0.737498 44.3565 0 42.5 0ZM46 7V10.5H33.085L36.585 3.5H42.5C43.4283 3.5 44.3185 3.86875 44.9749 4.52513C45.6312 5.1815 46 6.07174 46 7ZM17.335 10.5L20.835 3.5H32.665L29.165 10.5H17.335ZM7.5 3.5H16.915L13.415 10.5H4V7C4 6.07174 4.36875 5.1815 5.02513 4.52513C5.6815 3.86875 6.57174 3.5 7.5 3.5ZM42.5 40.25H7.5C6.57174 40.25 5.6815 39.8812 5.02513 39.2249C4.36875 38.5685 4 37.6783 4 36.75V14H46V36.75C46 37.6783 45.6312 38.5685 44.9749 39.2249C44.3185 39.8812 43.4283 40.25 42.5 40.25Z" fill="white"/>
</svg>
