<svg width="38" height="38" viewBox="0 0 38 38" fill="none" xmlns="http://www.w3.org/2000/svg">
<path d="M27.1112 24.8406C27.3996 24.9343 27.7006 24.983 28.0037 24.985C28.7499 24.9815 29.4643 24.6827 29.9906 24.1539C30.517 23.625 30.8125 22.9093 30.8125 22.1631V15.8369C30.8037 15.3957 30.6916 14.9627 30.4851 14.5727C30.2786 14.1827 29.9836 13.8466 29.6236 13.5913C29.2637 13.336 28.8489 13.1687 28.4126 13.1028C27.9762 13.0369 27.5305 13.0743 27.1112 13.2119L22.6881 14.695C22.4359 14.0374 21.992 13.4707 21.414 13.0682C20.836 12.6657 20.1505 12.446 19.4462 12.4375H10.6787C9.75281 12.4375 8.8648 12.8053 8.21006 13.4601C7.55533 14.1148 7.1875 15.0028 7.1875 15.9287V22.0712C7.1875 22.9972 7.55533 23.8852 8.21006 24.5399C8.8648 25.1947 9.75281 25.5625 10.6787 25.5625H19.4462C20.1444 25.5582 20.8256 25.3462 21.4029 24.9536C21.9802 24.5609 22.4276 24.0053 22.6881 23.3575L27.1112 24.8406ZM27.9381 15.6531C27.9647 15.6403 27.9939 15.6337 28.0234 15.6337C28.053 15.6337 28.0821 15.6403 28.1088 15.6531C28.134 15.6707 28.1545 15.6943 28.1682 15.7218C28.182 15.7493 28.1886 15.7799 28.1875 15.8106V22.1369C28.1886 22.1676 28.182 22.1982 28.1682 22.2257C28.1545 22.2532 28.134 22.2768 28.1088 22.2944C28.0821 22.3072 28.053 22.3138 28.0234 22.3138C27.9939 22.3138 27.9647 22.3072 27.9381 22.2944L22.9375 20.68V17.32L27.9381 15.6531ZM20.3125 22.0712C20.3091 22.2999 20.2168 22.5183 20.055 22.68C19.8933 22.8418 19.6749 22.9341 19.4462 22.9375H10.6787C10.4501 22.9341 10.2317 22.8418 10.07 22.68C9.90824 22.5183 9.81589 22.2999 9.8125 22.0712V15.9287C9.81589 15.7001 9.90824 15.4817 10.07 15.32C10.2317 15.1582 10.4501 15.0659 10.6787 15.0625H19.4462C19.6749 15.0659 19.8933 15.1582 20.055 15.32C20.2168 15.4817 20.3091 15.7001 20.3125 15.9287V22.0712Z" fill="#4A0EB9"/>
<path d="M12.4375 34.75H7.1875C6.14321 34.75 5.14169 34.3352 4.40327 33.5967C3.66484 32.8583 3.25 31.8568 3.25 30.8125V25.5625C3.25 25.2144 3.11172 24.8806 2.86558 24.6344C2.61944 24.3883 2.2856 24.25 1.9375 24.25C1.5894 24.25 1.25556 24.3883 1.00942 24.6344C0.763281 24.8806 0.625 25.2144 0.625 25.5625V30.8125C0.625 32.553 1.3164 34.2222 2.54711 35.4529C3.77782 36.6836 5.44702 37.375 7.1875 37.375H12.4375C12.7856 37.375 13.1194 37.2367 13.3656 36.9906C13.6117 36.7444 13.75 36.4106 13.75 36.0625C13.75 35.7144 13.6117 35.3806 13.3656 35.1344C13.1194 34.8883 12.7856 34.75 12.4375 34.75Z" fill="#4A0EB9"/>
<path d="M36.0625 24.25C35.7144 24.25 35.3806 24.3883 35.1344 24.6344C34.8883 24.8806 34.75 25.2144 34.75 25.5625V30.8125C34.75 31.8568 34.3352 32.8583 33.5967 33.5967C32.8583 34.3352 31.8568 34.75 30.8125 34.75H25.5625C25.2144 34.75 24.8806 34.8883 24.6344 35.1344C24.3883 35.3806 24.25 35.7144 24.25 36.0625C24.25 36.4106 24.3883 36.7444 24.6344 36.9906C24.8806 37.2367 25.2144 37.375 25.5625 37.375H30.8125C32.553 37.375 34.2222 36.6836 35.4529 35.4529C36.6836 34.2222 37.375 32.553 37.375 30.8125V25.5625C37.375 25.2144 37.2367 24.8806 36.9906 24.6344C36.7444 24.3883 36.4106 24.25 36.0625 24.25Z" fill="#4A0EB9"/>
<path d="M30.8125 0.625H25.5625C25.2144 0.625 24.8806 0.763281 24.6344 1.00942C24.3883 1.25556 24.25 1.5894 24.25 1.9375C24.25 2.2856 24.3883 2.61944 24.6344 2.86558C24.8806 3.11172 25.2144 3.25 25.5625 3.25H30.8125C31.8568 3.25 32.8583 3.66484 33.5967 4.40327C34.3352 5.14169 34.75 6.14321 34.75 7.1875V12.4375C34.75 12.7856 34.8883 13.1194 35.1344 13.3656C35.3806 13.6117 35.7144 13.75 36.0625 13.75C36.4106 13.75 36.7444 13.6117 36.9906 13.3656C37.2367 13.1194 37.375 12.7856 37.375 12.4375V7.1875C37.375 5.44702 36.6836 3.77782 35.4529 2.54711C34.2222 1.3164 32.553 0.625 30.8125 0.625Z" fill="#4A0EB9"/>
<path d="M1.9375 13.75C2.2856 13.75 2.61944 13.6117 2.86558 13.3656C3.11172 13.1194 3.25 12.7856 3.25 12.4375V7.1875C3.25 6.14321 3.66484 5.14169 4.40327 4.40327C5.14169 3.66484 6.14321 3.25 7.1875 3.25H12.4375C12.7856 3.25 13.1194 3.11172 13.3656 2.86558C13.6117 2.61944 13.75 2.2856 13.75 1.9375C13.75 1.5894 13.6117 1.25556 13.3656 1.00942C13.1194 0.763281 12.7856 0.625 12.4375 0.625H7.1875C5.44702 0.625 3.77782 1.3164 2.54711 2.54711C1.3164 3.77782 0.625 5.44702 0.625 7.1875V12.4375C0.625 12.7856 0.763281 13.1194 1.00942 13.3656C1.25556 13.6117 1.5894 13.75 1.9375 13.75Z" fill="#4A0EB9"/>
</svg>
