<svg width="35" height="35" viewBox="0 0 35 35" fill="none" xmlns="http://www.w3.org/2000/svg">
<path d="M29.4625 6.24C25.3325 2.11 20.38 1.1475 17.8075 0.954995C16.285 0.867495 14.885 1.9 14.5875 3.405L12.4875 13.94L2.86254 23.5475C0.307539 26.1025 0.307539 30.2675 2.86254 32.8225C4.10504 34.065 5.75004 34.7475 7.50004 34.7475C9.25004 34.7475 10.895 34.065 12.1375 32.8225L21.7625 23.1975L32.2975 21.0975C33.8025 20.8 34.87 19.4 34.7475 17.8425C34.2925 11.525 30.5825 7.35999 29.4625 6.2225V6.24ZM10.2825 30.985C8.79504 32.4725 6.20504 32.4725 4.71754 30.985C3.17754 29.445 3.17754 26.96 4.71754 25.42L13.695 16.4425L19.26 22.0075L10.2825 30.985ZM31.79 18.5425L21.5525 20.59L15.13 14.1675L17.1775 3.93C17.2125 3.7025 17.3875 3.545 17.615 3.58C19.8375 3.755 24.09 4.5775 27.625 8.095C28.5875 9.0575 31.7725 12.6275 32.1575 18.035C32.1575 18.28 32.0175 18.49 31.8075 18.5425H31.79Z" fill="#4A0EB9"/>
<path d="M11.5251 22.3225L7.81507 26.0325C7.30757 26.54 7.30757 27.38 7.81507 27.8875C8.07757 28.15 8.41007 28.2725 8.74257 28.2725C9.07507 28.2725 9.40757 28.15 9.67007 27.8875L13.3801 24.1775C13.8876 23.67 13.8876 22.83 13.3801 22.3225C12.8726 21.815 12.0326 21.815 11.5251 22.3225Z" fill="#4A0EB9"/>
</svg>
