<svg width="36" height="35" viewBox="0 0 36 35" fill="none" xmlns="http://www.w3.org/2000/svg">
<path d="M25.6125 19.4H19.75C19.505 19.4 19.3125 19.2075 19.3125 18.9625V15.2875C19.3125 13.8175 18.49 12.505 17.195 11.84C15.41 10.9475 13.205 11.595 12.1725 13.2925L8.515 19.4H5.75C3.09 19.4 0.9375 21.5525 0.9375 24.2125V29.4625C0.9375 32.1225 3.09 34.275 5.75 34.275H24.1075C26.2425 34.275 28.15 32.84 28.7275 30.7925L30.2325 25.5425C30.6525 24.0725 30.3725 22.5325 29.445 21.325C28.5175 20.1175 27.135 19.4175 25.595 19.4175L25.6125 19.4ZM3.5625 29.4625V24.2125C3.5625 23.005 4.5425 22.025 5.75 22.025H7.9375V31.65H5.75C4.5425 31.65 3.5625 30.67 3.5625 29.4625ZM27.7125 24.8075L26.2075 30.0575C25.945 30.985 25.07 31.65 24.1075 31.65H10.5625V21.08L14.4125 14.6575C14.745 14.115 15.445 13.905 16.005 14.2025C16.425 14.4125 16.6875 14.8325 16.6875 15.2875V18.9625C16.6875 20.6425 18.07 22.025 19.75 22.025H25.6125C26.3125 22.025 26.9425 22.34 27.3625 22.9C27.7825 23.46 27.905 24.16 27.7125 24.825V24.8075Z" fill="#4A0EB9"/>
<path d="M27.625 0.9375C23.53 0.9375 20.1875 4.28 20.1875 8.375C20.1875 12.47 23.53 15.8125 27.625 15.8125C31.72 15.8125 35.0625 12.47 35.0625 8.375C35.0625 4.28 31.72 0.9375 27.625 0.9375ZM27.625 13.1875C24.965 13.1875 22.8125 11.035 22.8125 8.375C22.8125 5.715 24.965 3.5625 27.625 3.5625C30.285 3.5625 32.4375 5.715 32.4375 8.375C32.4375 11.035 30.285 13.1875 27.625 13.1875Z" fill="#4A0EB9"/>
<path d="M29.3225 6.57252L26.75 9.14502L25.9275 8.32252C25.42 7.81502 24.58 7.81502 24.0725 8.32252C23.565 8.83002 23.565 9.67002 24.0725 10.1775L25.8225 11.9275C26.085 12.19 26.4175 12.3125 26.75 12.3125C27.0825 12.3125 27.415 12.19 27.6775 11.9275L31.1775 8.42752C31.685 7.92002 31.685 7.08002 31.1775 6.57252C30.67 6.06502 29.83 6.06502 29.3225 6.57252Z" fill="#4A0EB9"/>
</svg>
