<svg width="38" height="38" viewBox="0 0 38 38" fill="none" xmlns="http://www.w3.org/2000/svg">
<path d="M19.3412 16.375C20.295 16.375 21.2098 15.9961 21.8842 15.3217C22.5586 14.6473 22.9375 13.7325 22.9375 12.7788V4.22125C22.9375 3.26746 22.5586 2.35274 21.8842 1.67832C21.2098 1.00389 20.295 0.625 19.3412 0.625H4.22125C3.26746 0.625 2.35274 1.00389 1.67832 1.67832C1.00389 2.35274 0.625 3.26746 0.625 4.22125V12.7788C0.625 13.7325 1.00389 14.6473 1.67832 15.3217C2.35274 15.9961 3.26746 16.375 4.22125 16.375H19.3412ZM8.5 3.25H15.0625V13.75H8.5V3.25ZM20.3125 12.7788C20.3125 12.9063 20.2874 13.0326 20.2386 13.1504C20.1898 13.2683 20.1182 13.3753 20.028 13.4655C19.9378 13.5557 19.8308 13.6273 19.7129 13.6761C19.5951 13.7249 19.4688 13.75 19.3412 13.75H17.6875V9.8125H20.3125V12.7788ZM20.3125 4.22125V7.1875H17.6875V3.25H19.3412C19.5988 3.25 19.8459 3.35233 20.028 3.53447C20.2102 3.71662 20.3125 3.96366 20.3125 4.22125ZM4.22125 3.25H5.875V7.1875H3.25V4.22125C3.25 3.96366 3.35233 3.71662 3.53447 3.53447C3.71662 3.35233 3.96366 3.25 4.22125 3.25ZM3.25 12.7788V9.8125H5.875V13.75H4.22125C4.0937 13.75 3.96741 13.7249 3.84957 13.6761C3.73173 13.6273 3.62466 13.5557 3.53447 13.4655C3.44428 13.3753 3.37274 13.2683 3.32393 13.1504C3.27512 13.0326 3.25 12.9063 3.25 12.7788Z" fill="#4A0EB9"/>
<path d="M33.7787 21.625H18.6587C17.705 21.625 16.7902 22.0039 16.1158 22.6783C15.4414 23.3527 15.0625 24.2675 15.0625 25.2212V33.7788C15.0625 34.7325 15.4414 35.6473 16.1158 36.3217C16.7902 36.9961 17.705 37.375 18.6587 37.375H33.7787C34.7325 37.375 35.6473 36.9961 36.3217 36.3217C36.9961 35.6473 37.375 34.7325 37.375 33.7788V25.2212C37.375 24.2675 36.9961 23.3527 36.3217 22.6783C35.6473 22.0039 34.7325 21.625 33.7787 21.625ZM34.75 25.2212V28.1875H32.125V24.25H33.7787C34.0363 24.25 34.2834 24.3523 34.4655 24.5345C34.6477 24.7166 34.75 24.9637 34.75 25.2212ZM22.9375 24.25H29.5V34.75H22.9375V24.25ZM18.6587 24.25H20.3125V28.1875H17.6875V25.2212C17.6875 24.9637 17.7898 24.7166 17.972 24.5345C18.1541 24.3523 18.4012 24.25 18.6587 24.25ZM17.6875 33.7788V30.8125H20.3125V34.75H18.6587C18.4012 34.75 18.1541 34.6477 17.972 34.4655C17.7898 34.2834 17.6875 34.0363 17.6875 33.7788ZM34.75 33.7788C34.75 34.0363 34.6477 34.2834 34.4655 34.4655C34.2834 34.6477 34.0363 34.75 33.7787 34.75H32.125V30.8125H34.75V33.7788Z" fill="#4A0EB9"/>
<path d="M27.2557 12.0569C27.3777 12.1799 27.5228 12.2775 27.6828 12.3442C27.8427 12.4108 28.0143 12.4451 28.1875 12.4451C28.3608 12.4451 28.5324 12.4108 28.6923 12.3442C28.8522 12.2775 28.9974 12.1799 29.1194 12.0569C29.2424 11.9349 29.3401 11.7897 29.4067 11.6298C29.4733 11.4698 29.5077 11.2983 29.5077 11.125C29.5077 10.9517 29.4733 10.7802 29.4067 10.6202C29.3401 10.4603 29.2424 10.3151 29.1194 10.1931L28.7257 9.8125H30.8125C31.1606 9.8125 31.4945 9.95078 31.7406 10.1969C31.9868 10.4431 32.125 10.7769 32.125 11.125V16.375C32.125 16.7231 32.2633 17.0569 32.5095 17.3031C32.7556 17.5492 33.0894 17.6875 33.4375 17.6875C33.7856 17.6875 34.1195 17.5492 34.3656 17.3031C34.6118 17.0569 34.75 16.7231 34.75 16.375V11.125C34.75 10.0807 34.3352 9.07919 33.5968 8.34077C32.8584 7.60234 31.8568 7.1875 30.8125 7.1875H28.7257L29.1194 6.80687C29.3666 6.55973 29.5054 6.22452 29.5054 5.875C29.5054 5.52548 29.3666 5.19027 29.1194 4.94312C28.8723 4.69598 28.5371 4.55713 28.1875 4.55713C27.838 4.55713 27.5028 4.69598 27.2557 4.94312L24.6307 7.56812C24.5076 7.69014 24.41 7.8353 24.3434 7.99524C24.2767 8.15518 24.2424 8.32673 24.2424 8.5C24.2424 8.67326 24.2767 8.84482 24.3434 9.00476C24.41 9.1647 24.5076 9.30986 24.6307 9.43187L27.2557 12.0569Z" fill="#4A0EB9"/>
<path d="M10.7444 25.9431C10.622 25.8208 10.4767 25.7237 10.3168 25.6574C10.1569 25.5912 9.98557 25.5571 9.8125 25.5571C9.63943 25.5571 9.46806 25.5912 9.30817 25.6574C9.14828 25.7237 9.003 25.8208 8.88062 25.9431C8.75825 26.0655 8.66118 26.2108 8.59495 26.3707C8.52872 26.5306 8.49463 26.7019 8.49463 26.875C8.49463 27.0481 8.52872 27.2194 8.59495 27.3793C8.66118 27.5392 8.75825 27.6845 8.88062 27.8069L9.27437 28.1875H7.1875C6.8394 28.1875 6.50556 28.0492 6.25942 27.8031C6.01328 27.5569 5.875 27.2231 5.875 26.875V21.625C5.875 21.2769 5.73672 20.9431 5.49058 20.6969C5.24444 20.4508 4.9106 20.3125 4.5625 20.3125C4.2144 20.3125 3.88056 20.4508 3.63442 20.6969C3.38828 20.9431 3.25 21.2769 3.25 21.625V26.875C3.25 27.9193 3.66484 28.9208 4.40327 29.6592C5.14169 30.3977 6.14321 30.8125 7.1875 30.8125H9.27437L8.88062 31.1931C8.75761 31.3151 8.65996 31.4603 8.59333 31.6202C8.5267 31.7802 8.49239 31.9517 8.49239 32.125C8.49239 32.2983 8.5267 32.4698 8.59333 32.6298C8.65996 32.7897 8.75761 32.9349 8.88062 33.0569C9.00264 33.1799 9.1478 33.2775 9.30774 33.3442C9.46768 33.4108 9.63923 33.4451 9.8125 33.4451C9.98577 33.4451 10.1573 33.4108 10.3173 33.3442C10.4772 33.2775 10.6224 33.1799 10.7444 33.0569L13.3694 30.4319C13.4924 30.3099 13.59 30.1647 13.6567 30.0048C13.7233 29.8448 13.7576 29.6733 13.7576 29.5C13.7576 29.3267 13.7233 29.1552 13.6567 28.9952C13.59 28.8353 13.4924 28.6901 13.3694 28.5681L10.7444 25.9431Z" fill="#4A0EB9"/>
</svg>
